<svg xmlns="http://www.w3.org/2000/svg" viewBox="0 0 640 480"><rect width="640" height="480" fill="#de2910"/>
<g fill="#ffde00">
<polygon points="100,60 112,98 152,98 120,121 132,159 100,136 68,159 80,121 48,98 88,98"/>
<polygon points="200,32 204,44 216,44 207,51 210,63 200,56 190,63 193,51 184,44 196,44" transform="rotate(23 200 48)"/>
<polygon points="240,72 244,84 256,84 247,91 250,103 240,96 230,103 233,91 224,84 236,84" transform="rotate(45 240 88)"/>
<polygon points="240,132 244,144 256,144 247,151 250,163 240,156 230,163 233,151 224,144 236,144" transform="rotate(0 240 148)"/>
<polygon points="200,172 204,184 216,184 207,191 210,203 200,196 190,203 193,191 184,184 196,184" transform="rotate(-20 200 188)"/>
</g></svg>
