<svg xmlns="http://www.w3.org/2000/svg" width="128" height="128" viewBox="0 0 128 128">
  <defs>
    <linearGradient id="iceSuit" x1="0" y1="0" x2="1" y2="1">
      <stop offset="0%" stop-color="#f1fbff"/>
      <stop offset="45%" stop-color="#8db8cb"/>
      <stop offset="100%" stop-color="#3a5665"/>
    </linearGradient>
    <linearGradient id="iceShine" x1="0" y1="0" x2="0" y2="1">
      <stop offset="0%" stop-color="#ffffff" stop-opacity="0.95"/>
      <stop offset="100%" stop-color="#8be2ff" stop-opacity="0"/>
    </linearGradient>
  </defs>
  <g stroke-linecap="round" stroke-linejoin="round">
    <path d="M58 18l12 0 6 11-5 14h-14l-5-14z" fill="url(#iceSuit)" stroke="#15202a" stroke-width="4"/>
    <path d="M46 40c6-8 10-10 18-10s12 2 18 10l6 20-9 12-7 26H56L49 72l-9-12z" fill="url(#iceSuit)" stroke="#15202a" stroke-width="4"/>
    <path d="M32 80l14-6 10 10-8 20H28l4-24z" fill="url(#iceSuit)" stroke="#15202a" stroke-width="4"/>
    <path d="M96 80l-14-6-10 10 8 20h20l-4-24z" fill="url(#iceSuit)" stroke="#15202a" stroke-width="4"/>
    <path d="M58 42h12" stroke="#e9fbff" stroke-width="4"/>
    <rect x="53" y="48" width="22" height="18" rx="5" fill="#16222b" stroke="#9ddfff" stroke-width="3"/>
    <path d="M50 23c5 4 23 4 28 0" fill="none" stroke="url(#iceShine)" stroke-width="4"/>
    <path d="M62 18c-8 10-14 20-14 30" fill="none" stroke="#ffffff" stroke-width="3" opacity="0.35"/>
    <path d="M72 19c7 10 11 18 12 29" fill="none" stroke="#ffffff" stroke-width="3" opacity="0.35"/>
    <path d="M39 103c6 5 42 5 50 0" fill="none" stroke="#dff9ff" stroke-width="3" opacity="0.5"/>
  </g>
</svg>
