<svg xmlns="http://www.w3.org/2000/svg" width="128" height="128" viewBox="0 0 128 128">
  <defs>
    <linearGradient id="coilMetal" x1="0" y1="0" x2="1" y2="1">
      <stop offset="0%" stop-color="#cfd8df"/>
      <stop offset="45%" stop-color="#78838d"/>
      <stop offset="100%" stop-color="#2d343b"/>
    </linearGradient>
    <linearGradient id="coilGlow" x1="0" y1="0" x2="0" y2="1">
      <stop offset="0%" stop-color="#7dfcff" stop-opacity="0.95"/>
      <stop offset="100%" stop-color="#00e5ff" stop-opacity="0.0"/>
    </linearGradient>
  </defs>
  <g fill="none" stroke-linecap="round" stroke-linejoin="round">
    <path d="M24 82c8-18 22-28 40-28s32 10 40 28" stroke="url(#coilGlow)" stroke-width="10" opacity="0.45"/>
    <path d="M31 82c5-14 18-23 33-23s28 9 33 23" stroke="url(#coilMetal)" stroke-width="10"/>
    <path d="M38 81c4-10 13-16 26-16s22 6 26 16" stroke="#59646f" stroke-width="8"/>
    <path d="M45 80c3-6 10-11 19-11s16 5 19 11" stroke="#2b3137" stroke-width="6"/>
    <path d="M35 92l-12 9" stroke="#a8b3bb" stroke-width="6"/>
    <path d="M93 92l12 9" stroke="#a8b3bb" stroke-width="6"/>
    <rect x="56" y="51" width="16" height="10" rx="2" fill="#ff8a3d" opacity="0.9"/>
    <rect x="61" y="44" width="6" height="7" rx="1" fill="#d0d9df"/>
    <circle cx="64" cy="62" r="11" fill="none" stroke="#0f1215" stroke-width="3" opacity="0.55"/>
    <path d="M50 66c2-6 7-9 14-9s12 3 14 9" stroke="#e9f8ff" stroke-width="3" opacity="0.35"/>
  </g>
</svg>
